<?xml version="1.0" encoding="UTF-8" standalone="no"?>
<!-- Created with Inkscape (http://www.inkscape.org/) -->

<svg
   sodipodi:docname="ragnarharduino.svg"
   id="svg5"
   version="1.1"
   viewBox="0 0 210 297"
   height="297mm"
   width="210mm"
   inkscape:version="1.1 (c68e22c387, 2021-05-23)"
   xmlns:inkscape="http://www.inkscape.org/namespaces/inkscape"
   xmlns:sodipodi="http://sodipodi.sourceforge.net/DTD/sodipodi-0.dtd"
   xmlns="http://www.w3.org/2000/svg"
   xmlns:svg="http://www.w3.org/2000/svg">
  <sodipodi:namedview
     id="namedview7"
     pagecolor="#ffffff"
     bordercolor="#666666"
     borderopacity="1.0"
     inkscape:pageshadow="2"
     inkscape:pageopacity="0.0"
     inkscape:pagecheckerboard="0"
     inkscape:document-units="mm"
     showgrid="false"
     inkscape:zoom="1.5411756"
     inkscape:cx="446.08803"
     inkscape:cy="199.84744"
     inkscape:window-width="1916"
     inkscape:window-height="1025"
     inkscape:window-x="0"
     inkscape:window-y="0"
     inkscape:window-maximized="1"
     inkscape:current-layer="layer1"
     showguides="true"
     inkscape:guide-bbox="true">
    <sodipodi:guide
       position="-145.91211,194.467"
       orientation="1,0"
       id="guide5097" />
    <sodipodi:guide
       position="2.4034682,277.09963"
       orientation="0,-1"
       id="guide5201" />
    <sodipodi:guide
       position="-32.556801,166.11292"
       orientation="0,-1"
       id="guide5305" />
  </sodipodi:namedview>
  <defs
     id="defs2">
    <rect
       x="605.06771"
       y="206.4171"
       width="229.8798"
       height="54.828274"
       id="rect11427" />
  </defs>
  <g
     inkscape:label="Layer 1"
     inkscape:groupmode="layer"
     id="layer1">
    <g
       id="panel2119">
      <path
         style="fill:none;stroke:#000000;stroke-width:1"
         d="M 28.4 97.9 L 35.2143 97.9 L 35.2143 94.8 L 41.4143 94.8 L 41.4143 97.9 L 48.1286 97.9 L 48.1286 94.8 L 54.3286 94.8 L 54.3286 97.9 L 61.0429 97.9 L 61.0429 94.8 L 67.2429 94.8 L 67.2429 97.9 L 73.9571 97.9 L 73.9571 94.8 L 80.1571 94.8 L 80.1571 97.9 L 86.8714 97.9 L 86.8714 94.8 L 93.0714 94.8 L 93.0714 97.9 L 99.7857 97.9 L 99.7857 94.8 L 105.986 94.8 L 105.986 97.9 L 112.8 97.9"
         id="path1196" />
      <path
         style="fill:none;stroke:#000000;stroke-width:1"
         d="M 112.8 97.9 L 112.8 105.1 L 109.7 105.1 L 109.7 110.9 L 112.8 110.9 L 112.8 118.1"
         id="path1198" />
      <path
         style="fill:none;stroke:#000000;stroke-width:1"
         d="M 112.8,118.1 H 28.4"
         id="path1200"
         sodipodi:nodetypes="cc" />
      <path
         style="fill:none;stroke:#000000;stroke-width:1"
         d="M 28.4 118.1 L 28.4 110.9 L 31.5 110.9 L 31.5 105.1 L 28.4 105.1 L 28.4 97.9"
         id="path1202" />
    </g>
    <g
       id="panel309"
       transform="translate(-68.961335)">
      <path
         style="fill:none;stroke:#000000;stroke-width:1"
         d="m 4.1,31.5 h 7 v -3.1 h 6.2 v 3.1 h 7"
         id="path1205" />
      <path
         style="fill:none;stroke:#000000;stroke-width:1"
         d="m 24.3,31.5 v 5.08 h 3.1 v 6.2 h -3.1 v 8.08 h 3.1 v 6.2 h -3.1 v 8.08 h 3.1 v 6.2 h -3.1 v 8.08 h 3.1 v 6.2 h -3.1 v 5.08"
         id="path1207" />
      <path
         style="fill:none;stroke:#000000;stroke-width:1"
         d="m 24.3,90.7 h -7 v 3.1 h -6.2 v -3.1 h -7"
         id="path1209" />
      <path
         style="fill:none;stroke:#000000;stroke-width:1"
         d="M 4.1,90.7 V 85.62 H 1 v -6.2 H 4.1 V 42.78 H 1 v -6.2 H 4.1 V 31.5"
         id="path1211"
         sodipodi:nodetypes="cccccccccc" />
    </g>
    <g
       id="panel59">
      <path
         style="fill:none;stroke:#000000;stroke-width:1"
         d="M 28.4 28.4 L 35.4143 28.4 L 35.4143 31.5 L 41.2143 31.5 L 41.2143 28.4 L 48.3286 28.4 L 48.3286 31.5 L 54.1286 31.5 L 54.1286 28.4 L 61.2429 28.4 L 61.2429 31.5 L 67.0429 31.5 L 67.0429 28.4 L 74.1571 28.4 L 74.1571 31.5 L 79.9571 31.5 L 79.9571 28.4 L 87.0714 28.4 L 87.0714 31.5 L 92.8714 31.5 L 92.8714 28.4 L 99.9857 28.4 L 99.9857 31.5 L 105.786 31.5 L 105.786 28.4 L 112.8 28.4"
         id="path1214" />
      <path
         style="fill:none;stroke:#000000;stroke-width:1"
         d="M 112.8 28.4 L 112.8 36.78 L 109.7 36.78 L 109.7 42.58 L 112.8 42.58 L 112.8 51.06 L 109.7 51.06 L 109.7 56.86 L 112.8 56.86 L 112.8 65.34 L 109.7 65.34 L 109.7 71.14 L 112.8 71.14 L 112.8 79.62 L 109.7 79.62 L 109.7 85.42 L 112.8 85.42 L 112.8 93.8"
         id="path1216" />
      <path
         style="fill:none;stroke:#000000;stroke-width:1"
         d="M 112.8 93.8 L 105.786 93.8 L 105.786 90.7 L 99.9857 90.7 L 99.9857 93.8 L 92.8714 93.8 L 92.8714 90.7 L 87.0714 90.7 L 87.0714 93.8 L 79.9571 93.8 L 79.9571 90.7 L 74.1571 90.7 L 74.1571 93.8 L 67.0429 93.8 L 67.0429 90.7 L 61.2429 90.7 L 61.2429 93.8 L 54.1286 93.8 L 54.1286 90.7 L 48.3286 90.7 L 48.3286 93.8 L 41.2143 93.8 L 41.2143 90.7 L 35.4143 90.7 L 35.4143 93.8 L 28.4 93.8"
         id="path1218" />
      <path
         style="fill:none;stroke:#000000;stroke-width:1"
         d="M 28.4 93.8 L 28.4 85.42 L 31.5 85.42 L 31.5 79.62 L 28.4 79.62 L 28.4 71.14 L 31.5 71.14 L 31.5 65.34 L 28.4 65.34 L 28.4 56.86 L 31.5 56.86 L 31.5 51.06 L 28.4 51.06 L 28.4 42.58 L 31.5 42.58 L 31.5 36.78 L 28.4 36.78 L 28.4 28.4"
         id="path1220" />
    </g>
    <g
       id="panel8719">
      <path
         style="fill:none;stroke:#000000;stroke-width:1"
         d="M 116.9 31.5 L 123.9 31.5 L 123.9 28.4 L 130.1 28.4 L 130.1 31.5 L 137.1 31.5"
         id="path1223" />
      <path
         style="fill:none;stroke:#000000;stroke-width:1"
         d="m 137.1,31.5 v 5.08 h 3.1 v 6.2 h -3.1 v 36.64 h 3.1 v 6.2 h -3.1 v 5.08"
         id="path1225"
         sodipodi:nodetypes="cccccccccc" />
      <path
         style="fill:none;stroke:#000000;stroke-width:1"
         d="M 137.1 90.7 L 130.1 90.7 L 130.1 93.8 L 123.9 93.8 L 123.9 90.7 L 116.9 90.7"
         id="path1227" />
      <path
         style="fill:none;stroke:#000000;stroke-width:1"
         d="M 116.9 90.7 L 116.9 85.62 L 113.8 85.62 L 113.8 79.42 L 116.9 79.42 L 116.9 71.34 L 113.8 71.34 L 113.8 65.14 L 116.9 65.14 L 116.9 57.06 L 113.8 57.06 L 113.8 50.86 L 116.9 50.86 L 116.9 42.78 L 113.8 42.78 L 113.8 36.58 L 116.9 36.58 L 116.9 31.5"
         id="path1229" />
    </g>
    <g
       id="panel669"
       transform="translate(6.8045787,1.56647)">
      <path
         style="fill:none;stroke:#000000;stroke-width:1"
         d="m 138.55417,28.4 h 89.69166"
         id="path1232"
         sodipodi:nodetypes="cc" />
      <path
         style="fill:none;stroke:#000000;stroke-width:1"
         d="m 228.24583,28.4 v 8.38 H 222.5 v 5.8 h 5.74583 v 8.48 H 222.5 v 20.08 h 5.74583 v 8.48 H 222.5 v 5.8 h 5.74583 v 8.38"
         id="path1234"
         sodipodi:nodetypes="cccccccccccccc" />
      <path
         style="fill:none;stroke:#000000;stroke-width:1"
         d="M 228.24583,93.8 H 138.55417"
         id="path1236"
         sodipodi:nodetypes="cc" />
      <path
         style="fill:none;stroke:#000000;stroke-width:1"
         d="M 138.55417,93.8 V 85.42 H 144.3 v -5.8 h -5.74583 V 71.14 H 144.3 V 51.06 h -5.74583 V 42.58 H 144.3 v -5.8 h -5.74583 V 28.4"
         id="path1238"
         sodipodi:nodetypes="cccccccccccccc" />
    </g>
    <g
       id="panel1577">
      <path
         style="fill:none;stroke:#000000;stroke-width:1"
         d="m 28.4,4.1 h 84.4"
         id="path1241"
         sodipodi:nodetypes="cc" />
      <path
         style="fill:none;stroke:#000000;stroke-width:1"
         d="M 112.8 4.1 L 112.8 11.3 L 109.7 11.3 L 109.7 17.1 L 112.8 17.1 L 112.8 24.3"
         id="path1243" />
      <path
         style="fill:none;stroke:#000000;stroke-width:1"
         d="M 112.8 24.3 L 105.986 24.3 L 105.986 27.4 L 99.7857 27.4 L 99.7857 24.3 L 93.0714 24.3 L 93.0714 27.4 L 86.8714 27.4 L 86.8714 24.3 L 80.1571 24.3 L 80.1571 27.4 L 73.9571 27.4 L 73.9571 24.3 L 67.2429 24.3 L 67.2429 27.4 L 61.0429 27.4 L 61.0429 24.3 L 54.3286 24.3 L 54.3286 27.4 L 48.1286 27.4 L 48.1286 24.3 L 41.4143 24.3 L 41.4143 27.4 L 35.2143 27.4 L 35.2143 24.3 L 28.4 24.3"
         id="path1245" />
      <path
         style="fill:none;stroke:#000000;stroke-width:1"
         d="M 28.4 24.3 L 28.4 17.1 L 31.5 17.1 L 31.5 11.3 L 28.4 11.3 L 28.4 4.1"
         id="path1247" />
    </g>
    <rect
       style="fill:none;stroke:#000000;stroke-width:0.305041"
       id="rect4465"
       width="11.694959"
       height="13.694959"
       x="-60.434437"
       y="43.398159"
       ry="0.045319721" />
    <rect
       style="fill:none;stroke:#000000;stroke-width:0.353244"
       id="rect4467"
       width="12.646756"
       height="12.511127"
       x="-61.386234"
       y="72.251862" />
    <rect
       style="fill:none;stroke:#000000;stroke-width:0.253793"
       id="rect5511"
       width="67.191994"
       height="14.602106"
       x="157.37878"
       y="75.487785" />
    <rect
       style="fill:none;stroke:#000000;stroke-width:0.239837"
       id="rect5513"
       width="66.127708"
       height="14.464429"
       x="157.45732"
       y="36.488037" />
    <g
       aria-label="Ragnar H"
       transform="matrix(0.33810455,0,0,0.38437206,-44.773991,-25.472886)"
       id="text11425"
       style="font-size:40px;line-height:1.25;white-space:pre;shape-inside:url(#rect11427);fill:#ff0000">
      <path
         d="m 622.82227,228.13672 q 1.26953,0.42969 2.46093,1.83594 1.21094,1.40625 2.42188,3.86718 l 4.0039,7.96875 h -4.23828 l -3.73047,-7.48047 q -1.44531,-2.92968 -2.8125,-3.88671 -1.34765,-0.95704 -3.6914,-0.95704 h -4.29688 v 12.32422 h -3.94531 v -29.16015 h 8.90625 q 5,0 7.46094,2.08984 2.46094,2.08984 2.46094,6.30859 0,2.75391 -1.28907,4.57032 -1.26953,1.8164 -3.71093,2.51953 z m -9.88282,-12.2461 v 10.35157 h 4.96094 q 2.85156,0 4.29688,-1.3086 1.46484,-1.32812 1.46484,-3.88672 0,-2.55859 -1.46484,-3.84765 -1.44532,-1.3086 -4.29688,-1.3086 z"
         id="path16121"
         style="fill:#ff0000" />
      <path
         d="m 645.69336,230.8125 q -4.35547,0 -6.03516,0.99609 -1.67968,0.9961 -1.67968,3.39844 0,1.91406 1.25,3.04688 1.26953,1.11328 3.4375,1.11328 2.98828,0 4.78515,-2.10938 1.81641,-2.1289 1.81641,-5.64453 v -0.80078 z m 7.16797,-1.48438 v 12.48047 h -3.59375 v -3.32031 q -1.23047,1.99219 -3.06641,2.94922 -1.83594,0.9375 -4.49219,0.9375 -3.35937,0 -5.35156,-1.875 -1.97265,-1.89453 -1.97265,-5.05859 0,-3.69141 2.46093,-5.56641 2.48047,-1.875 7.38282,-1.875 h 5.03906 v -0.35156 q 0,-2.48047 -1.64063,-3.82813 -1.62109,-1.36719 -4.57031,-1.36719 -1.875,0 -3.65234,0.44922 -1.77735,0.44922 -3.41797,1.34766 v -3.32031 q 1.97265,-0.76172 3.82812,-1.13282 1.85547,-0.39062 3.61328,-0.39062 4.7461,0 7.08985,2.46094 2.34375,2.46093 2.34375,7.46093 z"
         id="path16123"
         style="fill:#ff0000" />
      <path
         d="m 674.6582,230.61719 q 0,-3.90625 -1.62109,-6.05469 -1.60156,-2.14844 -4.51172,-2.14844 -2.89062,0 -4.51172,2.14844 -1.60156,2.14844 -1.60156,6.05469 0,3.88672 1.60156,6.03515 1.6211,2.14844 4.51172,2.14844 2.91016,0 4.51172,-2.14844 1.62109,-2.14843 1.62109,-6.03515 z m 3.59375,8.47656 q 0,5.58594 -2.48047,8.30078 -2.48046,2.73438 -7.59765,2.73438 -1.89453,0 -3.57422,-0.29297 -1.67969,-0.27344 -3.26172,-0.85938 v -3.49609 q 1.58203,0.85937 3.125,1.26953 1.54297,0.41016 3.14453,0.41016 3.53516,0 5.29297,-1.85547 1.75781,-1.83594 1.75781,-5.56641 v -1.77734 q -1.11328,1.93359 -2.85156,2.89062 -1.73828,0.95703 -4.16016,0.95703 -4.02343,0 -6.48437,-3.0664 -2.46094,-3.06641 -2.46094,-8.125 0,-5.07813 2.46094,-8.14453 2.46094,-3.06641 6.48437,-3.06641 2.42188,0 4.16016,0.95703 1.73828,0.95703 2.85156,2.89063 v -3.32032 h 3.59375 z"
         id="path16125"
         style="fill:#ff0000" />
      <path
         d="m 703.83789,228.60547 v 13.20312 h -3.59375 v -13.08593 q 0,-3.10547 -1.21094,-4.64844 -1.21093,-1.54297 -3.63281,-1.54297 -2.91016,0 -4.58984,1.85547 -1.67969,1.85547 -1.67969,5.05859 v 12.36328 h -3.61328 v -21.875 h 3.61328 v 3.39844 q 1.28906,-1.97266 3.02734,-2.94922 1.75782,-0.97656 4.04297,-0.97656 3.76953,0 5.70313,2.34375 1.93359,2.32422 1.93359,6.85547 z"
         id="path16127"
         style="fill:#ff0000" />
      <path
         d="m 720.94727,230.8125 q -4.35547,0 -6.03516,0.99609 -1.67969,0.9961 -1.67969,3.39844 0,1.91406 1.25,3.04688 1.26953,1.11328 3.4375,1.11328 2.98828,0 4.78516,-2.10938 1.8164,-2.1289 1.8164,-5.64453 v -0.80078 z m 7.16796,-1.48438 v 12.48047 h -3.59375 v -3.32031 q -1.23046,1.99219 -3.0664,2.94922 -1.83594,0.9375 -4.49219,0.9375 -3.35937,0 -5.35156,-1.875 -1.97266,-1.89453 -1.97266,-5.05859 0,-3.69141 2.46094,-5.56641 2.48047,-1.875 7.38281,-1.875 h 5.03906 v -0.35156 q 0,-2.48047 -1.64062,-3.82813 -1.62109,-1.36719 -4.57031,-1.36719 -1.875,0 -3.65235,0.44922 -1.77734,0.44922 -3.41797,1.34766 v -3.32031 q 1.97266,-0.76172 3.82813,-1.13282 1.85547,-0.39062 3.61328,-0.39062 4.74609,0 7.08984,2.46094 2.34375,2.46093 2.34375,7.46093 z"
         id="path16129"
         style="fill:#ff0000" />
      <path
         d="m 748.19336,223.29297 q -0.60547,-0.35156 -1.32813,-0.50781 -0.70312,-0.17579 -1.5625,-0.17579 -3.04687,0 -4.6875,1.99219 -1.62109,1.97266 -1.62109,5.6836 v 11.52343 h -3.61328 v -21.875 h 3.61328 v 3.39844 q 1.13281,-1.99219 2.94922,-2.94922 1.81641,-0.97656 4.41406,-0.97656 0.3711,0 0.82031,0.0586 0.44922,0.0391 0.9961,0.13672 z"
         id="path16131"
         style="fill:#ff0000" />
      <path
         d="m 764.83398,212.64844 h 3.94532 v 11.95312 h 14.33593 v -11.95312 h 3.94532 v 29.16015 h -3.94532 V 227.92187 H 768.7793 v 13.88672 h -3.94532 z"
         id="path16133"
         style="fill:#ff0000" />
    </g>
  </g>
</svg>
