<?xml version="1.0" encoding="UTF-8" standalone="no"?>
<!-- Created with Inkscape (http://www.inkscape.org/) -->

<svg
   width="210mm"
   height="297mm"
   viewBox="0 0 210 297"
   version="1.1"
   id="svg5"
   inkscape:version="1.1 (c68e22c387, 2021-05-23)"
   sodipodi:docname="simonsays.svg"
   xmlns:inkscape="http://www.inkscape.org/namespaces/inkscape"
   xmlns:sodipodi="http://sodipodi.sourceforge.net/DTD/sodipodi-0.dtd"
   xmlns="http://www.w3.org/2000/svg"
   xmlns:svg="http://www.w3.org/2000/svg">
  <sodipodi:namedview
     id="namedview7"
     pagecolor="#ffffff"
     bordercolor="#666666"
     borderopacity="1.0"
     inkscape:pageshadow="2"
     inkscape:pageopacity="0.0"
     inkscape:pagecheckerboard="0"
     inkscape:document-units="mm"
     showgrid="false"
     showguides="false"
     inkscape:zoom="2.2141667"
     inkscape:cx="340.30861"
     inkscape:cy="570.41775"
     inkscape:window-width="1916"
     inkscape:window-height="1025"
     inkscape:window-x="0"
     inkscape:window-y="0"
     inkscape:window-maximized="1"
     inkscape:current-layer="layer1" />
  <defs
     id="defs2">
    <rect
       x="338.1307"
       y="684.09212"
       width="192.72854"
       height="47.948114"
       id="rect17860" />
    <rect
       x="279.95042"
       y="578.3682"
       width="314.24794"
       height="88.714989"
       id="rect7528" />
  </defs>
  <g
     inkscape:label="Layer 1"
     inkscape:groupmode="layer"
     id="layer1">
    <rect
       style="fill:#ececec;stroke-width:0.264583;stroke:#000000"
       id="rect31"
       width="88.481697"
       height="46.978951"
       x="45.531773"
       y="127.71375"
       ry="0.054784358" />
    <rect
       style="fill:#ececec;stroke:#000000;stroke-width:0.264583"
       id="rect278"
       width="88.481697"
       height="46.978951"
       x="71.030754"
       y="149.41341"
       ry="0.054784358" />
    <path
       style="fill:none;stroke:#000000;stroke-width:0.264583px;stroke-linecap:butt;stroke-linejoin:miter;stroke-opacity:1"
       d="m 45.531772,174.6927 25.498981,21.69966"
       id="path395" />
    <path
       style="fill:none;stroke:#000000;stroke-width:0.264583px;stroke-linecap:butt;stroke-linejoin:miter;stroke-opacity:1"
       d="m 45.531772,127.71375 25.498981,21.69966"
       id="path397" />
    <path
       style="fill:#cccccc;stroke:#000000;stroke-width:0.264583px;stroke-linecap:butt;stroke-linejoin:miter;stroke-opacity:1"
       d="m 134.01347,127.71375 25.49898,21.69966"
       id="path399" />
    <path
       style="fill:#cccccc;stroke:#000000;stroke-width:0.724064"
       d="m 221.46437,701.00314 -46.07742,-39.20829 46.01168,-0.18642 c 25.30643,-0.10253 46.12555,-0.0725 46.26473,0.0666 0.13917,0.13918 0.16876,17.8668 0.0657,39.39471 l -0.18732,39.14166 z"
       id="path475"
       transform="scale(0.26458333)" />
    <path
       style="fill:#cccccc;stroke:#000000;stroke-width:0.724064"
       d="M 269.35195,653.46811 V 565.85632 H 435.52473 601.6975 v 87.61179 87.61179 H 435.52473 269.35195 Z"
       id="path514"
       transform="scale(0.26458333)" />
    <path
       style="fill:#cccccc;stroke:#000000;stroke-width:0.724064"
       d="m 507.56913,524.58465 c 0,-21.50472 0.17799,-39.09948 0.39553,-39.09948 0.48845,0 91.56065,77.48423 91.56065,77.89981 0,0.16453 -20.69014,0.29914 -45.97809,0.29914 h -45.97809 z"
       id="path553"
       transform="scale(0.26458333)" />
    <path
       style="fill:#cccccc;stroke:#000000;stroke-width:0.724064"
       d="m 221.80223,523.75819 c -25.81738,-21.95926 -47.07644,-40.04277 -47.24237,-40.18557 -0.16594,-0.1428 74.20453,-0.25964 165.26769,-0.25964 h 165.56939 v 40.18557 40.18557 H 387.06993 268.7429 Z"
       id="path592"
       transform="scale(0.26458333)" />
    <path
       style="fill:#cccccc;stroke:#000000;stroke-width:0.191575"
       d="m 45.531772,151.60433 v -23.08837 l 3.975187,3.38542 c 2.186356,1.86198 7.83304,6.66714 12.548187,10.67812 l 8.572998,7.29269 v 12.41026 12.41025 H 58.079959 45.531772 Z"
       id="path631" />
    <g
       id="g899"
       transform="translate(0.60146593)">
      <rect
         style="fill:#ff0000;stroke:#000000;stroke-width:0.264583"
         id="rect816"
         width="6.4823356"
         height="7.8395948"
         x="53.068657"
         y="105.66788"
         ry="3.2411678" />
    </g>
    <g
       id="g903"
       transform="translate(20.893459)"
       style="fill:#0000ff">
      <rect
         style="fill:#0000ff;stroke:#000000;stroke-width:0.264583"
         id="rect901"
         width="6.4823356"
         height="7.8395948"
         x="53.068657"
         y="105.66788"
         ry="3.2411678" />
    </g>
    <g
       id="g907"
       transform="translate(42.593176)"
       style="fill:#00ff00">
      <rect
         style="fill:#00ff00;stroke:#000000;stroke-width:0.264583"
         id="rect905"
         width="6.4823356"
         height="7.8395948"
         x="53.068657"
         y="105.66788"
         ry="3.2411678" />
    </g>
    <g
       id="g911"
       transform="translate(65.57915)"
       style="fill:#ffff00">
      <rect
         style="fill:#ffff00;stroke:#000000;stroke-width:0.264583"
         id="rect909"
         width="6.4823356"
         height="7.8395948"
         x="53.068657"
         y="105.66788"
         ry="3.2411678" />
    </g>
    <rect
       style="fill:#4d4d4d;stroke:#000000;stroke-width:0.264583"
       id="rect989"
       width="1.1900247"
       height="19.165354"
       x="54.850552"
       y="111.9113"
       ry="0.59501237" />
    <rect
       style="fill:#4d4d4d;stroke:#000000;stroke-width:0.264583"
       id="rect1137"
       width="1.1900247"
       height="19.165354"
       x="57.698391"
       y="111.9113"
       ry="0.59501237" />
    <rect
       style="fill:#4d4d4d;stroke:#000000;stroke-width:0.264583"
       id="rect1139"
       width="1.1900247"
       height="19.165354"
       x="75.314964"
       y="111.9113"
       ry="0.59501237" />
    <rect
       style="fill:#4d4d4d;stroke:#000000;stroke-width:0.264583"
       id="rect1141"
       width="1.1900247"
       height="19.165354"
       x="78.162804"
       y="111.9113"
       ry="0.59501237" />
    <rect
       style="fill:#4d4d4d;stroke:#000000;stroke-width:0.264583"
       id="rect1143"
       width="1.1900247"
       height="19.165354"
       x="96.926987"
       y="111.9113"
       ry="0.59501237" />
    <rect
       style="fill:#4d4d4d;stroke:#000000;stroke-width:0.264583"
       id="rect1145"
       width="1.1900247"
       height="19.165354"
       x="99.774826"
       y="111.9113"
       ry="0.59501237" />
    <rect
       style="fill:#4d4d4d;stroke:#000000;stroke-width:0.264583"
       id="rect1147"
       width="1.1900247"
       height="19.165354"
       x="119.83956"
       y="111.9113"
       ry="0.59501237" />
    <rect
       style="fill:#4d4d4d;stroke:#000000;stroke-width:0.264583"
       id="rect1149"
       width="1.1900247"
       height="19.165354"
       x="122.6874"
       y="111.9113"
       ry="0.59501237" />
    <rect
       style="fill:#800000;stroke:#000000;stroke-width:0.264583"
       id="rect1173"
       width="10.898662"
       height="4.3498516"
       x="68.951614"
       y="142.50542"
       ry="0.5950135" />
    <rect
       style="fill:#0000d4;stroke:#000000;stroke-width:0.264583"
       id="rect1197"
       width="10.898662"
       height="4.3498516"
       x="88.309082"
       y="142.50542"
       ry="0.5950135" />
    <rect
       style="fill:#00aa00;stroke:#000000;stroke-width:0.264583"
       id="rect1279"
       width="10.898662"
       height="4.3498516"
       x="107.5687"
       y="142.50542"
       ry="0.5950135" />
    <rect
       style="fill:#aa8800;stroke:#000000;stroke-width:0.264583"
       id="rect1281"
       width="10.898662"
       height="4.3498516"
       x="130.29356"
       y="142.50542"
       ry="0.5950135" />
    <ellipse
       style="fill:#0000ff;stroke:#000000;stroke-width:0.264583"
       id="path1377"
       cx="93.287491"
       cy="141.92491"
       rx="2.9408131"
       ry="3.0592582" />
    <ellipse
       style="fill:#ff0000;stroke:#000000;stroke-width:0.264583"
       id="ellipse1423"
       cx="74.037025"
       cy="141.92491"
       rx="2.9408131"
       ry="3.0592582" />
    <ellipse
       style="fill:#00ff00;stroke:#000000;stroke-width:0.264583"
       id="ellipse1523"
       cx="112.57573"
       cy="141.92491"
       rx="2.9408131"
       ry="3.0592582" />
    <ellipse
       style="fill:#ffff00;stroke:#000000;stroke-width:0.264583"
       id="ellipse1543"
       cx="135.68681"
       cy="141.92491"
       rx="2.9408131"
       ry="3.0592582" />
    <ellipse
       style="fill:#000000;stroke:#000000;stroke-width:0.264583"
       id="path1585"
       cx="51.965508"
       cy="164.89584"
       rx="3.7204571"
       ry="7.9376402" />
    <ellipse
       style="fill:#000000;stroke:#000000;stroke-width:0.264583"
       id="path1587"
       cx="62.773785"
       cy="172.6324"
       rx="3.4706976"
       ry="8.2484426" />
    <path
       style="fill:#b3b3b3;stroke:#000000;stroke-width:0.264583"
       id="path1732"
       d="m 5.7894683,57.696362 c 0.5948167,0.0468 1.7506672,-0.18299 2.2239065,0.21012 0.1951464,0.1621 0.3136993,0.39879 0.4705491,0.59818 0.1240043,0.33005 0.2839415,0.64875 0.3720134,0.99016 0.4166468,1.61509 0.1846551,3.33256 -0.044876,4.95396 -0.1996358,1.41021 -0.4799008,2.71513 -0.7581749,4.10973 -0.5333749,2.4835 -1.1229004,4.95936 -1.9632626,7.35878 -0.1651818,0.47326 -0.3356054,0.94553 -0.4713208,1.42841 -0.018045,0.0642 -0.124492,0.46609 -0.1281832,0.55588 -0.00389,0.0946 0.018846,0.18847 0.028268,0.28271 0.33377,0.85863 1.2223671,1.24776 1.9821036,1.66252 0.763185,0.41665 1.1072307,0.57561 1.8763268,0.95312 1.0634038,0.479 2.1725488,0.87265 3.3256178,1.06193 0,0 1.856334,-1.31042 1.856334,-1.31042 v 0 c -1.151891,-0.12653 -2.254963,-0.53045 -3.315724,-0.9824 -0.794261,-0.38239 -1.083617,-0.50925 -1.868966,-0.9399 -0.6691312,-0.36693 -1.5341028,-0.72794 -1.8269527,-1.49332 -0.00418,-0.75308 0.3953714,-1.45972 0.5813129,-2.17455 0.7927075,-2.40432 1.3660321,-4.87141 1.8760198,-7.34965 0.276775,-1.41477 0.545591,-2.69543 0.749894,-4.12527 0.238687,-1.67049 0.478938,-3.41031 0.05157,-5.07427 -0.09332,-0.36332 -0.259629,-0.70388 -0.389444,-1.05581 -0.17186,-0.23363 -0.30314,-0.50343 -0.5155788,-0.70087 -0.5505095,-0.51165 -1.5771889,-0.24127 -2.260936,-0.3035 0,0 -1.8504945,1.34446 -1.8504945,1.34446 z" />
    <circle
       id="path1913"
       style="fill:#b3b3b3;stroke:#000000;stroke-width:0.264583"
       cx="55.60059"
       cy="166.12074"
       r="0.011063036" />
    <circle
       id="path1915"
       style="fill:#b3b3b3;stroke:#000000;stroke-width:0.264583"
       cx="55.60059"
       cy="166.12074"
       r="0.011063036" />
    <circle
       id="path1917"
       style="fill:#b3b3b3;stroke:#000000;stroke-width:0.264583"
       cx="55.191235"
       cy="165.87892"
       r="0.0078227473" />
    <circle
       id="path1919"
       style="fill:#b3b3b3;stroke:#000000;stroke-width:0.264583"
       cx="55.191235"
       cy="165.87892"
       r="0.0078227473" />
    <path
       style="fill:#4d4d4d;stroke:#000000;stroke-width:0.264583"
       id="path1958"
       d="m 50.978122,165.41489 c -0.463605,1.09999 -0.879041,2.21697 -1.232448,3.35702 -0.152111,0.53236 -0.321698,1.19109 -0.238519,1.75222 0.04438,0.29943 0.129855,0.44166 0.25109,0.71532 0.164917,0.32647 0.384709,0.61985 0.612984,0.90391 0.106238,0.1322 0.276741,0.33957 0.409662,0.44777 0.09944,0.081 0.211199,0.14547 0.316799,0.2182 0.719384,0.4032 1.517785,0.6482 2.327473,0.78806 0.489358,0.0855 0.988703,0.10724 1.458426,0.27609 0.478639,0.22544 0.895972,0.56143 1.312278,0.88385 0.38,0.33936 0.784511,0.63334 1.239295,0.86255 0.435837,0.16164 0.908788,0.27992 1.37763,0.27295 0.108582,-0.002 0.216656,-0.0152 0.324987,-0.0227 0.431099,-0.0541 0.845209,-0.17513 1.222828,-0.39268 1.825493,-1.05166 1.563756,-0.89391 2.553965,-1.50463 0.719052,-0.46177 -0.0076,0.007 0.672811,-0.4367 0.09215,-0.06 0.37275,-0.23341 0.277209,-0.17894 -3.06229,1.74619 -1.698961,0.96598 -0.984652,0.62469 0.08787,-0.0383 0.175729,-0.0765 0.263591,-0.11479 0,0 1.775952,-1.4023 1.775952,-1.4023 v 0 c -0.09108,0.0375 -0.18216,0.075 -0.273237,0.11249 -1.34466,0.6078 -2.590369,1.40867 -3.828217,2.20724 -0.958157,0.59 -0.149839,0.087 1.298456,-0.7259 0.09604,-0.0539 -0.183954,0.12168 -0.280911,0.1739 -0.276455,0.1489 -0.577331,0.22932 -0.883298,0.291 -0.101851,0.0138 -0.203097,0.0332 -0.305554,0.0414 -0.444,0.0354 -0.896371,-0.069 -1.318302,-0.19465 -0.450157,-0.20658 -0.847098,-0.48883 -1.217113,-0.81812 -0.425775,-0.34063 -0.861176,-0.67873 -1.340744,-0.94038 -0.179422,-0.0822 -0.236477,-0.12031 -0.423005,-0.16372 -0.352915,-0.0821 -0.724631,-0.0681 -1.078458,-0.14693 -0.788982,-0.1111 -1.569336,-0.32448 -2.273019,-0.70618 -0.09571,-0.0626 -0.196996,-0.11752 -0.287129,-0.18795 -0.125978,-0.0984 -0.29922,-0.2992 -0.399581,-0.41975 -0.221065,-0.26553 -0.430358,-0.54283 -0.586994,-0.85223 -0.113348,-0.26613 -0.172885,-0.35246 -0.207849,-0.64056 -0.06836,-0.56324 0.09576,-1.13556 0.239964,-1.67145 0.351649,-1.1458 0.769527,-2.27226 1.298307,-3.34928 0,0 -2.074677,0.94121 -2.074677,0.94121 z" />
    <text
       xml:space="preserve"
       transform="matrix(0.26458333,0,0,0.26458333,-0.41217388,3.3291908)"
       id="text7526"
       style="font-style:normal;font-weight:normal;font-size:53.3333px;line-height:1.25;font-family:sans-serif;white-space:pre;shape-inside:url(#rect7528);fill:#000000;fill-opacity:1;stroke:none"><tspan
         x="279.95117"
         y="625.55661"
         id="tspan19134">Simon Says</tspan></text>
    <text
       xml:space="preserve"
       transform="matrix(0.26458333,0,0,0.26458333,9.6487827,2.3024253)"
       id="text17858"
       style="font-style:normal;font-weight:normal;font-size:26.6667px;line-height:1.25;font-family:sans-serif;white-space:pre;shape-inside:url(#rect17860);fill:#000000;fill-opacity:1;stroke:none"><tspan
         x="338.13086"
         y="707.68558"
         id="tspan19136">Ragnar H</tspan></text>
  </g>
</svg>
